<svg width="1224" height="869" viewBox="0 0 1224 869" fill="none" xmlns="http://www.w3.org/2000/svg">
<path d="M125 80H0V0H330V80H205V350H125V80Z" fill="white"/>
<path d="M350 0H439.5L610 229V0H690V350H600L430 121V350H350V0Z" fill="white"/>
<path d="M710 0H795V350H710L710 0Z" fill="white"/>
<path d="M960 175L815 0H919L1012 112.5L1105 0H1209L1064 175L1209 350H1105L1012 237.5L919 350H815L960 175Z" fill="white"/>
<circle cx="42.5" cy="412.5" r="42.5" fill="#D93C3C"/>
<path d="M304 724L0 869L0 765L195.429 672L0 579L0 475L304 620L608 475V579L412.571 672L608 765V869L304 724Z" fill="white"/>
<path d="M912 724L608 869V765L803.429 672L608 579V475L912 620L1216 475V579L1020.57 672L1216 765V869L912 724Z" fill="white"/>
</svg>
