<svg width="81" height="58" viewBox="0 0 81 58" fill="none" xmlns="http://www.w3.org/2000/svg">
<path d="M8.33333 5.25714H0V0H22V5.25714H13.6667V23H8.33333V5.25714Z" fill="white"/>
<path d="M23 0H29.0544L40.5882 15.0486V0H46V23H39.9118L28.4118 7.95143V23H23V0Z" fill="white"/>
<path d="M47 0H53V23H47L47 0Z" fill="white"/>
<path d="M63.5685 11.5L54 0H60.8629L67 7.39286L73.1371 0H80L70.4315 11.5L80 23H73.1371L67 15.6071L60.8629 23H54L63.5685 11.5Z" fill="white"/>
<circle cx="2.5" cy="27.5" r="2.5" fill="#D93C3C"/>
<path d="M60.6362 48.3222L40.5796 58V51.0587L53.4731 44.8515L40.5796 38.6444V31.7031L60.6362 41.3809L80.6928 31.7031V38.6444L67.7992 44.8515L80.6928 51.0587V58L60.6362 48.3222Z" fill="white"/>
<path d="M20.2898 48.3222L0 58L0 51.0587L13.0434 44.8515L0 38.6444L0 31.7031L20.2898 41.3809L40.5796 31.7031V38.6444L27.5362 44.8515L40.5796 51.0587V58L20.2898 48.3222Z" fill="white"/>
</svg>
