<svg width="30" height="30" viewBox="0 0 30 30" fill="none" xmlns="http://www.w3.org/2000/svg">
<circle cx="15" cy="15" r="15" fill="white"/>
<path d="M23.9942 10.7019C23.9085 12.5288 22.7089 14.9795 20.3096 18.0986C17.8676 21.3959 15.8111 23 14.0974 23C13.0691 23 12.1694 22.0197 11.4411 20.0146C10.9698 18.1877 10.4557 16.3608 9.98442 14.5339C9.42746 12.5288 8.8705 11.5486 8.27069 11.5486C8.14216 11.5486 7.67089 11.7713 6.85687 12.3506L6 11.3258C6.89971 10.5237 7.71373 9.94446 8.5706 9.14241C9.77021 8.07301 10.6271 7.53832 11.2269 7.49376C12.6407 7.36008 13.4976 8.34036 13.7975 10.4346C14.1402 12.7071 14.4401 13.9101 14.5687 14.4448C14.9542 16.3163 15.4255 17.2966 15.8968 17.2966C16.2824 17.2966 16.8393 16.6727 17.6105 15.4697C18.3817 14.222 18.7673 13.3309 18.8101 12.6625C18.9387 11.5931 18.5102 11.0584 17.6105 11.0584C17.1821 11.0584 16.7108 11.2812 16.2395 11.4594C17.1392 8.47404 18.853 6.9145 21.3379 7.00362C23.223 7.04818 24.0799 8.2958 23.9942 10.7019Z" fill="black"/>
</svg>
